<?xml version="1.0" encoding="utf-8"?>
<svg width="22pt" height="22pt" viewBox="0 0 22 22" xmlns="http://www.w3.org/2000/svg">
  <g transform="matrix(0.863645, 0, 0, 0.863645, -204.911545, -204.911163)">
    <path d="M 243.711 239.073 C 241.52 239.465 239.758 241.086 239.202 243.218 C 239.001 243.988 238.988 244.439 239.011 250.41 C 239.024 255.895 239.029 256.022 239.12 256.446 C 239.625 258.728 241.247 260.354 243.552 260.891 C 243.853 260.96 244.235 260.973 246.699 260.987 C 249.25 261.005 249.514 261.001 249.583 260.932 C 249.651 260.864 249.656 259.985 249.656 250.019 C 249.656 242.63 249.642 239.15 249.61 239.087 C 249.564 239.005 249.487 239 246.818 239.005 C 244.65 239.009 243.998 239.023 243.711 239.073 Z M 247.834 250.005 L 247.834 259.233 L 245.98 259.211 C 244.272 259.192 244.089 259.183 243.748 259.097 C 242.281 258.719 241.192 257.589 240.887 256.118 C 240.787 255.658 240.787 244.325 240.883 243.874 C 241.156 242.594 242.044 241.533 243.242 241.054 C 243.843 240.813 244.121 240.786 246.071 240.781 L 247.834 240.777 L 247.834 250.005 Z" stroke="none" style="fill: rgb(10, 185, 230);"/>
    <path d="M 251.874 239.032 C 251.856 239.046 251.842 243.983 251.842 250.005 C 251.842 259.939 251.847 260.946 251.915 260.973 C 252.038 261.019 255.573 261.001 256.01 260.955 C 257.859 260.746 259.49 259.621 260.378 257.949 C 260.492 257.735 260.642 257.375 260.72 257.152 C 261.007 256.295 260.998 256.523 260.998 249.978 C 260.998 244.753 260.988 243.974 260.925 243.642 C 260.474 241.269 258.665 239.478 256.288 239.068 C 255.969 239.014 255.477 239 253.892 239 C 252.799 239 251.888 239.014 251.874 239.032 Z M 256.739 248.953 C 257.449 249.14 258.032 249.682 258.269 250.374 C 258.419 250.802 258.415 251.431 258.265 251.822 C 257.987 252.542 257.44 253.048 256.739 253.235 C 255.6 253.531 254.388 252.843 254.056 251.713 C 253.956 251.367 253.96 250.784 254.074 250.429 C 254.416 249.313 255.6 248.657 256.739 248.953 Z" stroke="none" style="fill: rgb(255, 60, 40);"/>
    <path d="M 244.103 243.56 C 243.816 243.614 243.379 243.833 243.146 244.038 C 242.668 244.452 242.431 245.04 242.468 245.732 C 242.486 246.092 242.509 246.188 242.655 246.479 C 242.869 246.921 243.192 247.245 243.634 247.463 C 243.939 247.614 244.017 247.632 244.413 247.646 C 244.773 247.659 244.9 247.646 245.142 247.564 C 246.13 247.231 246.727 246.27 246.558 245.286 C 246.362 244.115 245.251 243.332 244.103 243.56 Z" stroke="none" style="fill: rgb(10, 185, 230);"/>
  </g>
</svg>